# xmcd
#
# Track frame offsets:
#	150
#	25206
#	57803
#
# Disc length: 1180 seconds
#
# Revision: 1
# Processed by: cddbd v1.5.2PL0 Copyright (c) Steve Scherf et al.
# Submitted via: audiograbber 1.83.01
#
DISCID=1c049a03
DTITLE=Candi Staton - CD Single CD2
DYEAR=1999
DGENRE=
TTITLE0=Love On Love (Now Voyager Club Mix)
TTITLE1=Love On Love (David Morales Club Of Love Mix)
TTITLE2=Love On Love (Robbie Rivera's Funking Around Mix)
EXTD=
EXTT0=
EXTT1=
EXTT2=
PLAYORDER=
